<svg width="38" height="61" viewBox="0 0 38 61" fill="none" xmlns="http://www.w3.org/2000/svg">
<path d="M37.2682 2.58468C37.2682 2.14576 37.0939 1.72481 36.7835 1.41445C36.4731 1.10409 36.0522 0.929727 35.6133 0.929727H27.3385C23.1718 0.722166 19.0923 2.17223 15.9913 4.9631C12.8903 7.75396 11.02 11.6587 10.7891 15.8243V24.761H2.51432C2.0754 24.761 1.65446 24.9353 1.3441 25.2457C1.03374 25.5561 0.859375 25.977 0.859375 26.4159V35.0217C0.859375 35.4606 1.03374 35.8815 1.3441 36.1919C1.65446 36.5022 2.0754 36.6766 2.51432 36.6766H10.7891V58.8529C10.7891 59.2918 10.9634 59.7128 11.2738 60.0231C11.5841 60.3335 12.0051 60.5079 12.444 60.5079H22.3737C22.8126 60.5079 23.2336 60.3335 23.5439 60.0231C23.8543 59.7128 24.0286 59.2918 24.0286 58.8529V36.6766H32.7006C33.0686 36.6819 33.4279 36.5643 33.7216 36.3425C34.0154 36.1207 34.2268 35.8074 34.3224 35.4519L36.7055 26.8462C36.7714 26.6017 36.7802 26.3453 36.7314 26.0968C36.6826 25.8483 36.5774 25.6144 36.4239 25.4129C36.2704 25.2115 36.0728 25.048 35.8462 24.9349C35.6196 24.8219 35.37 24.7624 35.1168 24.761H24.0286V15.8243C24.111 15.005 24.4957 14.2458 25.1078 13.695C25.7198 13.1442 26.5152 12.8412 27.3385 12.8454H35.6133C36.0522 12.8454 36.4731 12.671 36.7835 12.3606C37.0939 12.0503 37.2682 11.6293 37.2682 11.1904V2.58468Z" fill="#231F20"/>
</svg>
