<svg width="74" height="70" viewBox="0 0 74 70" fill="none" xmlns="http://www.w3.org/2000/svg">
<path d="M36.7187 0.309969C27.1646 0.212883 17.9628 3.91315 11.1357 10.5975C4.30852 17.2819 0.414667 26.4035 0.309875 35.9576C0.346689 43.508 2.77556 50.8525 7.24762 56.9362C11.7197 63.0198 18.0048 67.5296 25.2003 69.8178C27.0207 70.1488 27.6827 69.0565 27.6827 68.0966C27.6827 67.1368 27.6827 65.0184 27.6827 62.0395C17.5544 64.191 15.403 57.2733 15.403 57.2733C14.7288 55.1017 13.2954 53.2453 11.3649 52.0436C8.05503 49.8591 11.6297 49.8922 11.6297 49.8922C12.7738 50.0452 13.8684 50.4552 14.8314 51.0914C15.7944 51.7277 16.6009 52.5738 17.1903 53.5662C18.2175 55.3473 19.9029 56.654 21.8838 57.2049C23.8647 57.7558 25.9827 57.507 27.782 56.512C27.9671 54.6994 28.7879 53.0109 30.0989 51.7458C22.0228 50.8521 13.5495 47.807 13.5495 34.1371C13.4772 30.5713 14.7948 27.1172 17.2234 24.5053C16.1174 21.4439 16.248 18.0719 17.5875 15.1052C17.5875 15.1052 20.6657 14.1453 27.5172 18.7461C33.4813 17.1568 39.7576 17.1568 45.7216 18.7461C52.6724 14.1453 55.6513 15.1052 55.6513 15.1052C56.9909 18.0719 57.1215 21.4439 56.0154 24.5053C58.5005 27.0693 59.8895 30.5002 59.888 34.0709C59.888 47.7739 51.3485 50.7859 43.3385 51.6796C44.2156 52.5311 44.8931 53.5664 45.3223 54.711C45.7515 55.8556 45.9218 57.0811 45.8209 58.2994V68.0635C45.8209 68.0635 46.4829 70.1488 48.3034 69.7847C55.4784 67.4823 61.7424 62.9715 66.2006 56.8964C70.6588 50.8214 73.0833 43.4928 73.1276 35.9576C73.0228 26.4035 69.1289 17.2819 62.3018 10.5975C55.4747 3.91315 46.2729 0.212883 36.7187 0.309969Z" fill="#231F20"/>
</svg>
