<svg width="29" height="26" viewBox="0 0 29 26" fill="none" xmlns="http://www.w3.org/2000/svg">
<path d="M14.5 25.4998C14.319 25.5009 14.1397 25.4631 13.9721 25.3884C13.8046 25.3138 13.6522 25.2038 13.5238 25.0648L2.84001 13.3948C1.49988 11.9175 0.748169 9.92313 0.748169 7.84478C0.748169 5.76643 1.49988 3.77202 2.84001 2.29478C4.19062 0.825547 6.02015 0.000488281 7.92751 0.000488281C9.83486 0.000488281 11.6644 0.825547 13.015 2.29478L14.5 3.91478L15.985 2.29478C17.3356 0.825547 19.1652 0.000488281 21.0725 0.000488281C22.9799 0.000488281 24.8094 0.825547 26.16 2.29478C27.5001 3.77202 28.2518 5.76643 28.2518 7.84478C28.2518 9.92313 27.5001 11.9175 26.16 13.3948L15.4763 25.0648C15.3478 25.2038 15.1954 25.3138 15.0279 25.3884C14.8604 25.4631 14.681 25.5009 14.5 25.4998Z" fill="#B1B1B1"/>
</svg>
