<svg width="61" height="61" viewBox="0 0 61 61" fill="none" xmlns="http://www.w3.org/2000/svg">
<path d="M41.1449 18.8028C38.608 18.7941 36.0943 19.2857 33.7477 20.2495C31.401 21.2133 29.2674 22.6304 27.4689 24.4196C25.6705 26.2088 24.2425 28.3351 23.2667 30.6768C22.2908 33.0185 21.7863 35.5296 21.782 38.0664V57.5286C21.782 58.3187 22.0958 59.0764 22.6545 59.635C23.2131 60.1937 23.9708 60.5075 24.7609 60.5075H31.7117C32.5017 60.5075 33.2594 60.1937 33.8181 59.635C34.3767 59.0764 34.6906 58.3187 34.6906 57.5286V38.0664C34.6899 37.1642 34.8794 36.2719 35.2467 35.4478C35.6141 34.6236 36.1509 33.8862 36.8224 33.2835C37.4938 32.6807 38.2847 32.2263 39.1436 31.9497C40.0024 31.6731 40.9099 31.5807 41.8069 31.6783C43.4155 31.881 44.8938 32.6669 45.9615 33.8871C47.0291 35.1073 47.6119 36.6768 47.5992 38.2981V57.5286C47.5992 58.3187 47.913 59.0764 48.4717 59.635C49.0303 60.1937 49.788 60.5075 50.5781 60.5075H57.5289C58.3189 60.5075 59.0766 60.1937 59.6353 59.635C60.1939 59.0764 60.5078 58.3187 60.5078 57.5286V38.0664C60.5034 35.5296 59.9989 33.0185 59.0231 30.6768C58.0472 28.3351 56.6193 26.2088 54.8208 24.4196C53.0224 22.6304 50.8888 21.2133 48.5421 20.2495C46.1954 19.2857 43.6817 18.7941 41.1449 18.8028Z" fill="#231F20"/>
<path d="M12.8453 21.7812H3.90859C2.26339 21.7812 0.929688 23.115 0.929688 24.7602V57.5281C0.929688 59.1733 2.26339 60.507 3.90859 60.507H12.8453C14.4905 60.507 15.8242 59.1733 15.8242 57.5281V24.7602C15.8242 23.115 14.4905 21.7812 12.8453 21.7812Z" fill="#231F20"/>
<path d="M8.37695 15.8242C12.49 15.8242 15.8242 12.49 15.8242 8.37695C15.8242 4.26394 12.49 0.929688 8.37695 0.929688C4.26394 0.929688 0.929688 4.26394 0.929688 8.37695C0.929688 12.49 4.26394 15.8242 8.37695 15.8242Z" fill="#231F20"/>
</svg>
