<svg width="27" height="29" viewBox="0 0 27 29" fill="none" xmlns="http://www.w3.org/2000/svg">
<path d="M22.6321 4.99487C20.5127 2.69041 17.7155 1.25696 14.7227 0.941645C11.7299 0.626331 8.729 1.44891 6.23743 3.26758C3.74585 5.08624 1.91971 7.78702 1.07383 10.9043C0.227956 14.0216 0.415354 17.36 1.60372 20.344C1.72758 20.6213 1.76822 20.9335 1.71997 21.237L0.583303 27.1394C0.53951 27.3657 0.548453 27.6002 0.609327 27.8219C0.670201 28.0435 0.781098 28.2454 0.932053 28.4092C1.0558 28.5419 1.20314 28.6462 1.36519 28.7158C1.52725 28.7853 1.70065 28.8187 1.87497 28.8139H2.1333L7.66164 27.6139C7.94261 27.5774 8.22754 27.6207 8.4883 27.7395C11.2505 29.0232 14.3408 29.2257 17.2264 28.3119C20.112 27.3981 22.6121 25.4253 24.2955 22.7337C25.979 20.0421 26.7405 16.8003 26.4486 13.5672C26.1567 10.3341 24.8298 7.31228 22.6966 5.02278L22.6321 4.99487ZM23.7041 16.6602C23.4516 18.3262 22.8525 19.9087 21.9521 21.2885C21.0516 22.6683 19.8731 23.8095 18.5054 24.6262C17.1376 25.4429 15.6162 25.9138 14.0557 26.0035C12.4951 26.0932 10.936 25.7993 9.4958 25.1441C8.985 24.9093 8.43629 24.786 7.88122 24.7813C7.63875 24.7831 7.39682 24.8064 7.15789 24.851L3.51539 25.6464L4.25164 21.7114C4.39827 20.8592 4.30375 19.9791 3.98039 19.1858C3.37381 17.6299 3.1018 15.9457 3.18484 14.2598C3.26788 12.574 3.70379 10.9304 4.45978 9.45288C5.21577 7.97532 6.27214 6.70225 7.54939 5.72946C8.82664 4.75668 10.2915 4.10953 11.8337 3.83671C13.4525 3.5497 15.1113 3.68318 16.6729 4.2261C18.2345 4.76902 19.654 5.70579 20.814 6.95891C21.974 8.21203 22.8411 9.74549 23.3437 11.4325C23.8463 13.1194 23.9698 14.9114 23.7041 16.6602Z" fill="#1DAA97"/>
</svg>
