<svg width="21" height="23" viewBox="0 0 21 23" fill="none" xmlns="http://www.w3.org/2000/svg">
<path d="M20.655 20.0357L16.6896 15.9679C17.969 14.291 18.6632 12.2201 18.6607 10.0883C18.6607 8.18965 18.1134 6.33369 17.0882 4.75507C16.063 3.17644 14.6058 1.94605 12.9009 1.21949C11.196 0.492929 9.31998 0.302827 7.51007 0.673225C5.70017 1.04362 4.03766 1.95788 2.73279 3.3004C1.42792 4.64291 0.539296 6.35337 0.179284 8.21549C-0.180729 10.0776 0.00404265 12.0077 0.710233 13.7618C1.41642 15.5159 2.61231 17.0151 4.14668 18.0699C5.68104 19.1247 7.48497 19.6877 9.33033 19.6877C11.4024 19.6904 13.4152 18.9761 15.0452 17.6598L18.9989 21.7396C19.1073 21.8521 19.2363 21.9414 19.3784 22.0023C19.5205 22.0632 19.673 22.0946 19.8269 22.0946C19.9809 22.0946 20.1334 22.0632 20.2755 22.0023C20.4176 21.9414 20.5466 21.8521 20.655 21.7396C20.7643 21.6281 20.8511 21.4953 20.9103 21.3491C20.9695 21.2029 21 21.0461 21 20.8877C21 20.7293 20.9695 20.5724 20.9103 20.4262C20.8511 20.28 20.7643 20.1473 20.655 20.0357ZM2.33259 10.0883C2.33259 8.6643 2.743 7.27233 3.51192 6.08836C4.28084 4.90439 5.37374 3.9816 6.65241 3.43668C7.93108 2.89176 9.33809 2.74918 10.6955 3.02698C12.053 3.30478 13.2998 3.99048 14.2785 4.99736C15.2571 6.00424 15.9236 7.28709 16.1936 8.68368C16.4636 10.0803 16.325 11.5279 15.7954 12.8434C15.2658 14.159 14.3688 15.2834 13.2181 16.0745C12.0673 16.8656 10.7144 17.2879 9.33033 17.2879C7.47441 17.2879 5.69451 16.5293 4.38218 15.1791C3.06985 13.829 2.33259 11.9977 2.33259 10.0883Z" fill="#F5F5F5"/>
</svg>
