<svg width="67" height="67" viewBox="0 0 67 67" fill="none" xmlns="http://www.w3.org/2000/svg">
<path d="M66.5077 4.23992C66.4732 3.93586 66.4066 3.6363 66.3091 3.34625V3.04836C66.1504 2.68 65.9261 2.34354 65.6471 2.05539C65.3662 1.79148 65.0414 1.57865 64.6872 1.42651H64.3893C64.0843 1.19353 63.7353 1.02465 63.3633 0.930026H63.1978C62.8687 0.880095 62.5339 0.880095 62.2048 0.930026L2.62666 20.7894C1.96446 21.0071 1.38787 21.4282 0.97911 21.9929C0.570349 22.5575 0.350281 23.2367 0.350281 23.9338C0.350281 24.6309 0.570349 25.3101 0.97911 25.8748C1.38787 26.4394 1.96446 26.8605 2.62666 27.0782L30.8601 36.4783L40.2602 64.7117C40.4778 65.3739 40.899 65.9505 41.4636 66.3593C42.0283 66.768 42.7075 66.9881 43.4046 66.9881C44.1016 66.9881 44.7809 66.768 45.3455 66.3593C45.9102 65.9505 46.3313 65.3739 46.549 64.7117L66.4084 5.13359C66.4819 4.84161 66.5154 4.54094 66.5077 4.23992ZM50.9511 11.8196L32.515 30.2557L14.0789 24.0993L50.9511 11.8196ZM43.3384 53.3588L37.182 34.9227L55.6181 16.4865L43.3384 53.3588Z" fill="#231F20"/>
</svg>
