<svg width="61" height="54" viewBox="0 0 61 54" fill="none" xmlns="http://www.w3.org/2000/svg">
<path d="M17.7441 53.1975C22.6384 53.3612 27.5159 52.5422 32.0884 50.7889C36.6608 49.0355 40.8353 46.3834 44.3653 42.9892C47.8952 39.595 50.709 35.5276 52.6403 31.0274C54.5715 26.5273 55.5811 21.6856 55.6093 16.7886C57.8523 14.013 59.5178 10.817 60.508 7.38853C60.5819 7.11765 60.5759 6.83118 60.4908 6.56361C60.4057 6.29605 60.245 6.0588 60.0282 5.88042C59.8113 5.70205 59.5475 5.59017 59.2686 5.55824C58.9896 5.52632 58.7074 5.57571 58.4558 5.70048C57.2824 6.26533 55.9613 6.44778 54.6787 6.22214C53.3961 5.9965 52.2167 5.37413 51.3065 4.44272C50.1445 3.17032 48.739 2.1441 47.1732 1.42485C45.6074 0.705597 43.9132 0.307955 42.1909 0.255483C40.4686 0.203012 38.7532 0.496778 37.1465 1.11938C35.5399 1.74197 34.0745 2.68074 32.8372 3.88004C31.1432 5.52062 29.9024 7.57153 29.2355 9.83347C28.5685 12.0954 28.498 14.4914 29.0309 16.7886C17.9427 17.4506 10.33 12.1879 4.23974 4.9723C4.05678 4.76511 3.81745 4.61567 3.55097 4.54225C3.28448 4.46882 3.00238 4.47458 2.73912 4.55883C2.47586 4.64307 2.24282 4.80215 2.06847 5.01664C1.89412 5.23114 1.78601 5.49176 1.75732 5.76668C0.597104 12.2025 1.43404 18.8393 4.15573 24.7856C6.87742 30.7319 11.3535 35.7029 16.9828 39.0311C13.2084 43.3599 7.9078 46.0635 2.18761 46.5777C1.88115 46.6285 1.59826 46.7739 1.37851 46.9935C1.15876 47.213 1.01317 47.4958 0.9621 47.8022C0.911031 48.1086 0.957045 48.4233 1.0937 48.7023C1.23036 48.9813 1.45082 49.2105 1.72422 49.358C6.70072 51.845 12.1809 53.1584 17.7441 53.1975Z" fill="#231F20"/>
</svg>
